<mxfile host="app.diagrams.net" agent="Mozilla/5.0 (Windows NT 10.0; Win64; x64) AppleWebKit/537.36 (KHTML, like Gecko) Chrome/134.0.0.0 Safari/537.36" version="26.1.1">
  <diagram name="Page-1" id="aCvU2aFQ2rOlorFZCYn7">
    <mxGraphModel dx="1434" dy="738" grid="1" gridSize="10" guides="1" tooltips="1" connect="1" arrows="1" fold="1" page="1" pageScale="1" pageWidth="850" pageHeight="1100" math="0" shadow="0">
      <root>
        <mxCell id="0" />
        <mxCell id="1" parent="0" />
        <mxCell id="EXhFWmHEFxY6u78AbXzw-3" value="" style="edgeStyle=orthogonalEdgeStyle;rounded=0;orthogonalLoop=1;jettySize=auto;html=1;" edge="1" parent="1" source="EXhFWmHEFxY6u78AbXzw-1" target="EXhFWmHEFxY6u78AbXzw-2">
          <mxGeometry relative="1" as="geometry">
            <Array as="points">
              <mxPoint x="420" y="230" />
            </Array>
          </mxGeometry>
        </mxCell>
        <mxCell id="EXhFWmHEFxY6u78AbXzw-12" style="edgeStyle=orthogonalEdgeStyle;rounded=0;orthogonalLoop=1;jettySize=auto;html=1;entryX=1;entryY=0.75;entryDx=0;entryDy=0;" edge="1" parent="1" source="EXhFWmHEFxY6u78AbXzw-1" target="EXhFWmHEFxY6u78AbXzw-4">
          <mxGeometry relative="1" as="geometry">
            <Array as="points">
              <mxPoint x="310" y="395" />
              <mxPoint x="310" y="395" />
            </Array>
          </mxGeometry>
        </mxCell>
        <mxCell id="EXhFWmHEFxY6u78AbXzw-20" style="edgeStyle=orthogonalEdgeStyle;rounded=0;orthogonalLoop=1;jettySize=auto;html=1;entryX=0;entryY=0.25;entryDx=0;entryDy=0;" edge="1" parent="1" source="EXhFWmHEFxY6u78AbXzw-1" target="EXhFWmHEFxY6u78AbXzw-18">
          <mxGeometry relative="1" as="geometry">
            <Array as="points">
              <mxPoint x="520" y="360" />
              <mxPoint x="520" y="360" />
            </Array>
          </mxGeometry>
        </mxCell>
        <mxCell id="EXhFWmHEFxY6u78AbXzw-22" style="edgeStyle=orthogonalEdgeStyle;rounded=0;orthogonalLoop=1;jettySize=auto;html=1;entryX=-0.008;entryY=0.338;entryDx=0;entryDy=0;entryPerimeter=0;" edge="1" parent="1" source="EXhFWmHEFxY6u78AbXzw-1" target="EXhFWmHEFxY6u78AbXzw-23">
          <mxGeometry relative="1" as="geometry">
            <mxPoint x="550" y="410" as="targetPoint" />
            <Array as="points">
              <mxPoint x="520" y="399" />
              <mxPoint x="520" y="399" />
            </Array>
          </mxGeometry>
        </mxCell>
        <mxCell id="EXhFWmHEFxY6u78AbXzw-30" value="" style="edgeStyle=orthogonalEdgeStyle;rounded=0;orthogonalLoop=1;jettySize=auto;html=1;entryX=0.5;entryY=0;entryDx=0;entryDy=0;exitX=0.5;exitY=1;exitDx=0;exitDy=0;" edge="1" parent="1" source="EXhFWmHEFxY6u78AbXzw-1" target="EXhFWmHEFxY6u78AbXzw-29">
          <mxGeometry relative="1" as="geometry" />
        </mxCell>
        <mxCell id="EXhFWmHEFxY6u78AbXzw-1" value="Cellphone&amp;nbsp;&lt;div&gt;App Store&lt;/div&gt;" style="ellipse;whiteSpace=wrap;html=1;" vertex="1" parent="1">
          <mxGeometry x="360" y="340" width="120" height="80" as="geometry" />
        </mxCell>
        <mxCell id="EXhFWmHEFxY6u78AbXzw-2" value="Payment Gateway" style="whiteSpace=wrap;html=1;" vertex="1" parent="1">
          <mxGeometry x="630" y="220" width="120" height="60" as="geometry" />
        </mxCell>
        <mxCell id="EXhFWmHEFxY6u78AbXzw-4" value="Customer" style="whiteSpace=wrap;html=1;" vertex="1" parent="1">
          <mxGeometry x="30" y="350" width="120" height="60" as="geometry" />
        </mxCell>
        <mxCell id="EXhFWmHEFxY6u78AbXzw-6" value="App Selection/&lt;span style=&quot;background-color: transparent; color: light-dark(rgb(0, 0, 0), rgb(255, 255, 255));&quot;&gt;Payment Info&lt;/span&gt;" style="text;html=1;align=center;verticalAlign=middle;resizable=0;points=[];autosize=1;strokeColor=none;fillColor=none;" vertex="1" parent="1">
          <mxGeometry x="180" y="337" width="170" height="30" as="geometry" />
        </mxCell>
        <mxCell id="EXhFWmHEFxY6u78AbXzw-9" value="App Access/Receipt" style="text;html=1;align=center;verticalAlign=middle;resizable=0;points=[];autosize=1;strokeColor=none;fillColor=none;" vertex="1" parent="1">
          <mxGeometry x="190" y="393" width="130" height="30" as="geometry" />
        </mxCell>
        <mxCell id="EXhFWmHEFxY6u78AbXzw-13" style="edgeStyle=orthogonalEdgeStyle;rounded=0;orthogonalLoop=1;jettySize=auto;html=1;entryX=0.05;entryY=0.275;entryDx=0;entryDy=0;entryPerimeter=0;" edge="1" parent="1">
          <mxGeometry relative="1" as="geometry">
            <mxPoint x="150" y="362" as="sourcePoint" />
            <mxPoint x="366" y="362" as="targetPoint" />
            <Array as="points">
              <mxPoint x="200" y="362" />
              <mxPoint x="200" y="362" />
            </Array>
          </mxGeometry>
        </mxCell>
        <mxCell id="EXhFWmHEFxY6u78AbXzw-14" value="Payment Info" style="text;html=1;align=center;verticalAlign=middle;resizable=0;points=[];autosize=1;strokeColor=none;fillColor=none;" vertex="1" parent="1">
          <mxGeometry x="470" y="205" width="90" height="30" as="geometry" />
        </mxCell>
        <mxCell id="EXhFWmHEFxY6u78AbXzw-15" style="edgeStyle=orthogonalEdgeStyle;rounded=0;orthogonalLoop=1;jettySize=auto;html=1;entryX=0.742;entryY=0.113;entryDx=0;entryDy=0;entryPerimeter=0;" edge="1" parent="1" source="EXhFWmHEFxY6u78AbXzw-2" target="EXhFWmHEFxY6u78AbXzw-1">
          <mxGeometry relative="1" as="geometry">
            <Array as="points">
              <mxPoint x="449" y="270" />
            </Array>
          </mxGeometry>
        </mxCell>
        <mxCell id="EXhFWmHEFxY6u78AbXzw-16" value="Payment Confirmation" style="text;html=1;align=center;verticalAlign=middle;resizable=0;points=[];autosize=1;strokeColor=none;fillColor=none;" vertex="1" parent="1">
          <mxGeometry x="480" y="246" width="140" height="30" as="geometry" />
        </mxCell>
        <mxCell id="EXhFWmHEFxY6u78AbXzw-18" value="Developer" style="rounded=0;whiteSpace=wrap;html=1;" vertex="1" parent="1">
          <mxGeometry x="810" y="340" width="120" height="80" as="geometry" />
        </mxCell>
        <mxCell id="EXhFWmHEFxY6u78AbXzw-21" value="Sales Report/Payout" style="text;html=1;align=center;verticalAlign=middle;resizable=0;points=[];autosize=1;strokeColor=none;fillColor=none;" vertex="1" parent="1">
          <mxGeometry x="560" y="337" width="130" height="30" as="geometry" />
        </mxCell>
        <mxCell id="EXhFWmHEFxY6u78AbXzw-26" style="edgeStyle=orthogonalEdgeStyle;rounded=0;orthogonalLoop=1;jettySize=auto;html=1;exitX=1;exitY=0.5;exitDx=0;exitDy=0;entryX=0;entryY=0.75;entryDx=0;entryDy=0;" edge="1" parent="1" source="EXhFWmHEFxY6u78AbXzw-23" target="EXhFWmHEFxY6u78AbXzw-18">
          <mxGeometry relative="1" as="geometry">
            <Array as="points">
              <mxPoint x="710" y="400" />
            </Array>
          </mxGeometry>
        </mxCell>
        <mxCell id="EXhFWmHEFxY6u78AbXzw-23" value="Bank" style="rounded=0;whiteSpace=wrap;html=1;" vertex="1" parent="1">
          <mxGeometry x="630" y="385" width="80" height="40" as="geometry" />
        </mxCell>
        <mxCell id="EXhFWmHEFxY6u78AbXzw-25" value="Payout Request" style="text;html=1;align=center;verticalAlign=middle;resizable=0;points=[];autosize=1;strokeColor=none;fillColor=none;" vertex="1" parent="1">
          <mxGeometry x="500" y="396" width="110" height="30" as="geometry" />
        </mxCell>
        <mxCell id="EXhFWmHEFxY6u78AbXzw-27" value="Payment" style="text;html=1;align=center;verticalAlign=middle;resizable=0;points=[];autosize=1;strokeColor=none;fillColor=none;" vertex="1" parent="1">
          <mxGeometry x="730" y="396" width="70" height="30" as="geometry" />
        </mxCell>
        <mxCell id="EXhFWmHEFxY6u78AbXzw-29" value="Admin" style="whiteSpace=wrap;html=1;" vertex="1" parent="1">
          <mxGeometry x="375" y="500" width="90" height="40" as="geometry" />
        </mxCell>
      </root>
    </mxGraphModel>
  </diagram>
</mxfile>
